<?xml version="1.0" encoding="UTF-8"?>
<svg width="800px" height="800px" viewBox="0 0 32 32" xmlns="http://www.w3.org/2000/svg">
  <path d="M18 14h3v3h-3z M14 14h3v3h-3z M10 14h3v3h-3z M6 14h3v3H6z M14 10h3v3h-3z M3 16c0-.3.1-.6.2-.9.2-.3.4-.5.7-.7.3-.2.6-.2.9-.2.3 0 .6.1.9.2s.5.4.7.7c.2.3.2.6.2.9s-.1.6-.2.9-.4.5-.7.7c-.3.2-.6.2-.9.2-.3 0-.6-.1-.9-.2s-.5-.4-.7-.7c-.2-.3-.2-.6-.2-.9z" fill="#2496ED"/>
  <path d="M32 15c-1-5-4.5-7-4.5-7s-2.5 4-1 7c-2 0-6.5-.5-9.5-.5H2c0 11 9 12 14 12 11 0 16-4 16-11.5z" fill="#2496ED"/>
</svg>