<?xml version="1.0" encoding="UTF-8"?>
<svg width="800px" height="800px" viewBox="0 0 32 32" xmlns="http://www.w3.org/2000/svg">
  <path d="M25.6 29c-2.34 0-5.57-1.23-9.78-3.72-3.96-2.34-7.27-5.66-9.6-9.62C3.72 11.46 2.5 8.24 2.5 5.9c0-.95.19-1.79.56-2.51.37-.71.89-1.31 1.58-1.81 1.25-.9 2.52-1.34 3.81-1.34 1.82 0 3.47.86 4.95 2.59l2.46 2.92c.82.97 1.23 2.03 1.23 3.16 0 1.08-.38 2.11-1.13 3.09-.28.37-.6.71-.95 1.02-.36.32-.75.63-1.18.94.61 1.19 1.44 2.37 2.47 3.52 1.02 1.14 2.13 2.1 3.33 2.87.32-.43.63-.82.94-1.18.31-.35.65-.67 1.02-.95.98-.75 2.01-1.13 3.09-1.13 1.13 0 2.19.41 3.16 1.23l2.92 2.46c1.73 1.48 2.59 3.13 2.59 4.95 0 1.29-.45 2.56-1.34 3.81-.5.69-1.1 1.21-1.81 1.58-.72.37-1.56.56-2.51.56z" fill="#3B8EDE"/>
</svg>