<?xml version="1.0" encoding="UTF-8"?>
<svg width="800px" height="800px" viewBox="0 0 32 32" xmlns="http://www.w3.org/2000/svg">
  <path d="M16 13.146c-1.573 0-2.854 1.281-2.854 2.854s1.281 2.854 2.854 2.854 2.854-1.281 2.854-2.854-1.281-2.854-2.854-2.854z" fill="#00D8FF"/>
  <path d="M16 7.317c-4.6 0-9.065 1.597-12.207 4.354-3.142 2.757-4.903 6.416-4.903 10.329s1.762 7.572 4.903 10.329c3.142 2.757 7.607 4.354 12.207 4.354s9.065-1.597 12.207-4.354c3.142-2.757 4.903-6.416 4.903-10.329s-1.762-7.572-4.903-10.329c-3.142-2.757-7.607-4.354-12.207-4.354zm0 26.034c-3.784 0-7.442-1.311-10.121-3.576-2.68-2.265-4.183-5.329-4.183-8.775s1.503-6.51 4.183-8.775c2.679-2.265 6.337-3.576 10.121-3.576s7.442 1.311 10.121 3.576c2.68 2.265 4.183 5.329 4.183 8.775s-1.503 6.51-4.183 8.775c-2.679 2.265-6.337 3.576-10.121 3.576z" fill="#00D8FF"/>
  <path d="M16 0c-8.837 0-16 7.163-16 16s7.163 16 16 16 16-7.163 16-16-7.163-16-16-16zm0 29.333c-7.364 0-13.333-5.97-13.333-13.333s5.97-13.333 13.333-13.333c7.364 0 13.333 5.97 13.333 13.333s-5.97 13.333-13.333 13.333z" fill="#00D8FF"/>
</svg>