<?xml version="1.0" encoding="UTF-8"?>
<svg width="800px" height="800px" viewBox="0 0 32 32" xmlns="http://www.w3.org/2000/svg">
  <path d="M16 2C8.3 2 2 8.3 2 16s6.3 14 14 14 14-6.3 14-14S23.7 2 16 2zM3.9 16c0-1.7.4-3.2 1-4.6L10.8 27c-4-1.9-6.9-6-6.9-11zm12.1 12c-1.2 0-2.3-.2-3.4-.5l3.6-10.4 3.7 10.1c0 .1.1.1.1.2-1.2.4-2.6.6-4 .6zm1.7-17.3c.7 0 1.4-.1 1.4-.1.6-.1.6-1 0-1 0 0-1.9.2-3.1.2-1.1 0-3-.2-3-.2-.7 0-.7 1 0 1 0 0 .6.1 1.3.1l1.9 5.3-2.7 8.2-4.5-13.5c.7 0 1.4-.1 1.4-.1.6-.1.6-1 0-1 0 0-1.9.2-3.1.2-.2 0-.5 0-.7 0C8.6 6.5 12 4 16 4c3 0 5.7 1.1 7.7 3-.1 0-.1 0-.2 0-1.1 0-1.9 1-1.9 2 0 1 .6 1.8 1.2 2.8.5.8 1 1.9 1 3.4 0 1-.4 2.3-.9 4l-1.2 4-4.3-12.9zm6.4 11.8L20.6 13c.9-2.2 1.2-4 1.2-5.6 0-.6 0-1.1-.1-1.6 1.2 2.2 1.9 4.7 1.9 7.4 0 5.6-3 10.5-7.5 13.3z" fill="#21759B"/>
</svg>